<?xml version="1.0" encoding="UTF-8" standalone="no"?>
<!-- Created with Inkscape (http://www.inkscape.org/) -->

<svg
   version="1.1"
   id="svg1"
   width="2627.0662"
   height="608.83563"
   viewBox="0 0 2627.0662 608.83562"
   xmlns:xlink="http://www.w3.org/1999/xlink"
   xmlns="http://www.w3.org/2000/svg"
   xmlns:svg="http://www.w3.org/2000/svg">
  <defs
     id="defs1">
    <linearGradient
       x1="0"
       y1="0"
       x2="1"
       y2="4.4408921e-16"
       gradientUnits="userSpaceOnUse"
       gradientTransform="matrix(3825.7666,2239.9975,-2239.9975,3825.7666,22058.893,503.3452)"
       spreadMethod="pad"
       id="linearGradient1264">
      <stop
         style="stop-color:#7fd7d7;stop-opacity:1;"
         offset="0"
         id="stop1259" />
      <stop
         style="stop-color:#7fd7d7;stop-opacity:1;"
         offset="0.12"
         id="stop1260" />
      <stop
         style="stop-color:#7fd7d7;stop-opacity:1;"
         offset="0.25279793"
         id="stop1261" />
      <stop
         style="stop-color:#e242ff;stop-opacity:1;"
         offset="0.48484799"
         id="stop1262" />
      <stop
         style="stop-color:#ffc451;stop-opacity:1;"
         offset="0.77759957"
         id="stop1263" />
      <stop
         style="stop-color:#ffffff;stop-opacity:1;"
         offset="1"
         id="stop1264" />
    </linearGradient>
    <linearGradient
       x1="0"
       y1="0"
       x2="1"
       y2="4.4408921e-16"
       gradientUnits="userSpaceOnUse"
       gradientTransform="matrix(3825.7666,2239.9975,-2239.9975,3825.7666,22058.893,503.3452)"
       spreadMethod="pad"
       id="linearGradient437-4"
       xlink:href="#linearGradient1264">
      <stop
         style="stop-color:#7fd7d7;stop-opacity:1;"
         offset="0"
         id="stop432-8" />
      <stop
         style="stop-color:#7fd7d7;stop-opacity:1;"
         offset="0.12"
         id="stop433-8" />
      <stop
         style="stop-color:#7fd7d7;stop-opacity:1;"
         offset="0.18456264"
         id="stop434-2" />
      <stop
         style="stop-color:#e242ff;stop-opacity:1;"
         offset="0.48484799"
         id="stop435-4" />
      <stop
         style="stop-color:#ffc451;stop-opacity:1;"
         offset="0.77759957"
         id="stop436-5" />
      <stop
         style="stop-color:#ffffff;stop-opacity:1;"
         offset="1"
         id="stop437-5" />
    </linearGradient>
    <linearGradient
       xlink:href="#linearGradient437-4"
       id="linearGradient1596"
       gradientUnits="userSpaceOnUse"
       gradientTransform="matrix(3825.7666,2239.9975,-2239.9975,3825.7666,22053.897,1202.6324)"
       x1="0"
       y1="0"
       x2="1"
       y2="4.4408921e-16"
       spreadMethod="pad" />
    <linearGradient
       xlink:href="#linearGradient437-4"
       id="linearGradient1597"
       gradientUnits="userSpaceOnUse"
       gradientTransform="matrix(3825.777,2240.0035,-2240.0035,3825.777,22040.987,1179.9165)"
       x1="0"
       y1="0"
       x2="1"
       y2="0"
       spreadMethod="pad" />
  </defs>
  <g
     id="layer-MC1"
     transform="translate(-22959.691,-1145.3384)">
    <g
       id="g1598"
       transform="translate(403.66694,-794.26882)">
      <g
         id="g2">
        <path
           id="path437-1-6"
           d="m 22594.012,1996.2078 v 100.2787 h -31.763 v 81.664 h 31.763 v 150.3827 c 0,27.2187 8.422,50.3413 25.277,69.348 v 0 c 18.672,21.5827 44.921,32.7613 78.735,33.62 v 0 l 100.28,0.092 v -199.344 c 0,-15.4907 4.898,-27.108 14.685,-34.8653 v 0 c 6.924,-5.2814 14.872,-7.9427 23.847,-7.9427 v 0 c 8.957,0 16.91,2.6613 23.845,7.9427 v 0 c 9.789,7.7573 14.676,19.3746 14.676,34.8653 v 0 199.344 h 100.277 v -31.2427 c 25.89,23.2454 62.555,34.9094 110.071,34.9094 v 0 c 24.739,0 43.985,-1.42 64.809,-3.6667 v 0 h 100.29 v -34.0507 c 26.009,25.1254 63.7,37.7174 113.117,37.7174 v 0 c 23.933,0 42.229,-0.956 62.979,-3.6667 v 0 h 96.933 c 16.257,2.7627 36.729,4.1587 61.536,4.1587 v 0 c 16.459,0 31.609,-1.4347 45.567,-4.1987 v 0 0.04 h 100.284 v -196.9013 c 0,-16.716 5.093,-28.94 15.281,-36.6894 v 0 c 6.929,-5.704 15.287,-8.5613 25.077,-8.5613 v 0 c 9.788,0 18.14,2.8573 25.074,8.5613 v 0 c 10.178,7.7494 15.288,19.9734 15.288,36.6894 v 0 196.9013 h 100.278 v -31.2707 c 25.231,23.268 58.026,34.9374 98.446,34.9374 v 0 c 34.71,0 63.797,-8.6334 87.314,-25.792 v 0 c 13.531,8.8213 28.024,15.3466 43.539,19.4693 v 0 c 17.757,4.5373 42.541,6.8147 74.359,6.8147 v 0 c 16.617,0 31.902,-1.4694 45.961,-4.292 v 0 106.5293 h 100.284 v -130.2427 c 18.343,18.344 42.801,27.5134 73.38,27.5134 v 0 c 28.104,0 51.455,-7.2574 70.109,-21.724 v 0 c 18.211,14.0266 41.335,21.1106 69.44,21.1106 v 0 c 28.94,0 53.402,-9.9826 73.376,-29.9653 v 0 26.912 h 97.836 v -28.9667 c 1.02,0.8907 2.011,1.812 3.059,2.6614 v 0 c 24.856,19.9866 56.657,29.972 95.393,29.972 v 0 c 35.099,0 65.134,-8.9667 90.123,-26.8494 v 0 c 25.033,17.8827 58.364,26.8494 100.045,26.8494 v 0 c 28.94,0 53.6,-4.4854 73.984,-13.456 v 0 c 17.934,-7.74 35.863,-20.58 53.814,-38.5214 v 0 l -59.922,-59.9266 c -18.346,18.344 -40.973,27.5133 -67.876,27.5133 v 0 c -17.946,0 -32.212,-5.2893 -42.804,-15.8987 v 0 c -10.205,-9.3746 -15.289,-21.184 -15.289,-35.464 v 0 h 196.893 v -44.6373 c 0,-44.8387 -12.64,-81.528 -37.912,-110.0627 v 0 c -27.317,-30.5733 -64.001,-45.86 -110.064,-45.86 v 0 c -35.385,0 -65.098,9.3627 -89.157,28.052 v 0 c -25.327,-18.6947 -55.94,-28.052 -91.835,-28.052 v 0 c -38.736,0 -70.537,9.996 -95.393,29.9613 v 0 c -7.628,6.204 -14.367,13.296 -20.347,21.1547 v 0 c -21.838,-34.0787 -64.381,-51.116 -127.634,-51.116 v 0 c -28.124,0 -50.963,3.156 -68.483,9.4747 v 0 c -8.729,3.14 -17.356,7.5853 -25.875,13.3026 v 0 c -18.924,-15.176 -42.958,-22.7773 -72.088,-22.7773 v 0 c -30.18,0 -55.449,10.1853 -75.833,30.5733 v 0 -26.9106 h -68.664 c -19.896,-5.0987 -42.875,-7.6494 -68.952,-7.6494 v 0 c -35.931,0 -66.3,9.0787 -91.084,27.256 v 0 c -6.465,4.8254 -12.151,10.0574 -17.112,15.656 v 0 c -25.741,-25.928 -59.937,-38.9253 -102.585,-38.9253 v 0 c -44.442,0 -79.704,14.0627 -105.784,42.188 v 0 c -2.94,3.1147 -5.642,6.3213 -8.18,9.596 v 0 c -4.778,-8.8253 -10.644,-16.7093 -17.622,-23.6627 v 0 c -18.801,-18.744 -43.545,-28.1213 -74.221,-28.1213 v 0 c -30.683,0 -56.251,10.1853 -76.696,30.5733 v 0 -26.9106 h -68.276 c -19.896,-5.0987 -42.864,-7.6494 -68.944,-7.6494 v 0 c -31.143,0 -58.08,6.844 -80.844,20.488 v 0 h -82.66 c -20.879,-10.9773 -45.087,-16.5013 -72.685,-16.5013 v 0 c -43.028,0 -77.664,13.86 -103.948,41.504 v 0 -37.8413 h -100.29 v 13.5146 c -21.157,-11.432 -45.805,-17.1773 -73.981,-17.1773 v 0 c -44.024,0 -79.287,14.476 -105.784,43.412 v 0 c -3.065,3.3787 -5.939,6.92 -8.659,10.572 v 0 c -3.422,-6.8813 -7.416,-13.2987 -12.133,-19.1373 v 0 c -18.755,-23.232 -45.248,-34.8467 -79.487,-34.8467 v 0 c -27.737,0 -51.78,10.1853 -72.166,30.5733 v 0 -133.312 z m 1666.221,225.1534 -51.253,-4.9587 c -14.406,-1.2413 -21.608,-7.44 -21.608,-18.5933 v 0 c 0,-12.7947 10.9,-19.2014 32.713,-19.2014 v 0 c 16.337,0 30.24,1.5587 41.752,4.6547 v 0 38.308 c -0.551,-0.059 -1.059,-0.152 -1.604,-0.2093 m -630.517,0 -51.238,-4.9587 c -14.417,-1.2413 -21.609,-7.44 -21.609,-18.5933 v 0 c 0,-12.7947 10.896,-19.2014 32.704,-19.2014 v 0 c 16.155,0 29.921,1.5267 41.363,4.56 v 0 38.3547 c -0.416,-0.049 -0.804,-0.1226 -1.22,-0.1613 m 914.178,-16.052 c 14.671,-14.6534 32.182,-21.9827 52.559,-21.9827 v 0 c 33.016,0 49.525,13.6627 49.525,40.9747 v 0 8.5573 h -66.645 c -12.333,0 -23.632,1.2 -34.072,3.4054 v 0 c -0.279,-12.236 -0.729,-22.552 -1.367,-30.9547 m 253.12,61.7907 c 0,-51.7707 15.895,-77.6587 47.7,-77.6587 v 0 c 13.854,0 27.3,6.524 40.351,19.568 v 0 l 0.05,-0.047 c -4.498,17.6107 -6.778,36.9627 -6.778,58.1374 v 0 c 0,21.7426 1.983,41.34 5.907,58.86 v 0 c -12.792,12.5053 -25.977,18.8 -39.531,18.8 v 0 c -31.805,0 -47.7,-25.892 -47.7,-77.66 m -649.252,63.6666 c 1.919,-10.2 3.242,-22.0306 4.003,-35.4813 v 0 c 10.151,3.188 21.487,5.4147 34.092,6.628 v 0 l 51.619,4.9533 c 16.17,1.6507 24.254,8.6747 24.254,21.0667 v 0 c 0,14.4707 -14.518,21.6907 -43.522,21.6907 v 0 c -29.228,0 -52.64,-6.3587 -70.446,-18.8574 m -620.576,6.0187 v -39.8413 c 8.602,2.28 17.935,3.988 28.166,4.9693 v 0 l 51.61,4.9533 c 14.666,1.5027 22.602,7.4587 23.974,17.7947 v 0 6.4493 c -2.043,12.3347 -16.44,18.5134 -43.231,18.5134 v 0 c -24.099,0 -44.2,-4.3494 -60.519,-12.8387 m -206.07,-1.8147 c -10.192,-9.3746 -15.287,-21.184 -15.287,-35.464 v 0 h 121.071 v 28.316 c -17.438,15.304 -38.398,23.0467 -62.979,23.0467 v 0 c -17.948,0 -32.207,-5.2893 -42.805,-15.8987 m -278.22,0 c -10.192,-9.3746 -15.279,-21.184 -15.279,-35.464 v 0 h 122.897 v 26.6414 c -17.786,16.412 -39.357,24.7213 -64.809,24.7213 v 0 c -17.937,0 -32.208,-5.2893 -42.809,-15.8987"
           style="fill:url(#linearGradient1596);stroke:none;stroke-width:1.333;stroke-dasharray:none" />
        <path
           id="path443-8-3"
           d="m 23417.057,1967.7353 c -12.031,12.0347 -18.046,26.396 -18.046,43.1094 v 0 c 0,16.7186 6.015,31.0893 18.046,43.1146 v 0 c 12.022,12.024 26.385,18.0334 43.104,18.0334 v 0 c 16.713,0 31.082,-6.0094 43.114,-18.0334 v 0 c 12.019,-12.0253 18.036,-26.396 18.036,-43.1146 v 0 c 0,-16.7134 -6.017,-31.0747 -18.036,-43.1094 v 0 c -12.032,-12.0226 -26.401,-18.0333 -43.114,-18.0333 v 0 c -16.719,0 -31.082,6.0107 -43.104,18.0333"
           style="fill:url(#linearGradient1597);stroke:none;stroke-width:1.33333" />
      </g>
    </g>
  </g>
</svg>
